<svg xmlns="http://www.w3.org/2000/svg" xmlns:xlink="http://www.w3.org/1999/xlink" version="1.1" width="256" height="256" viewBox="0 0 256 256" xml:space="preserve">
<desc>Created with Fabric.js 1.7.22</desc>
<defs>
</defs>
<g transform="translate(128 128) scale(0.72 0.72)" style="">
	<g style="stroke: none; stroke-width: 0; stroke-dasharray: none; stroke-linecap: butt; stroke-linejoin: miter; stroke-miterlimit: 10; fill: none; fill-rule: nonzero; opacity: 1;" transform="translate(-175.05 -175.05000000000004) scale(3.89 3.89)" >
	<path d="M 57.299 65.386 c -8.373 0 -16.748 -3.188 -23.123 -9.563 C 28 49.647 24.598 41.436 24.598 32.701 c 0 -8.734 3.402 -16.946 9.578 -23.123 C 40.353 3.401 48.564 0 57.299 0 c 8.735 0 16.947 3.401 23.123 9.578 C 86.599 15.754 90 23.966 90 32.701 c 0 8.735 -3.401 16.947 -9.578 23.123 l 0 0 l 0 0 C 74.047 62.198 65.673 65.386 57.299 65.386 z M 57.299 2 c -8.2 0 -15.91 3.193 -21.708 8.992 c -5.798 5.799 -8.992 13.508 -8.992 21.708 c 0 8.201 3.194 15.91 8.992 21.708 c 11.971 11.971 31.448 11.971 43.417 0 l 0 0 C 84.807 48.61 88 40.901 88 32.701 c 0 -8.2 -3.193 -15.91 -8.992 -21.708 S 65.5 2 57.299 2 z" style="stroke: none; stroke-width: 1; stroke-dasharray: none; stroke-linecap: butt; stroke-linejoin: miter; stroke-miterlimit: 10; fill: rgb(0,0,0); fill-rule: nonzero; opacity: 1;" transform=" matrix(1 0 0 1 0 0) " stroke-linecap="round" />
	<path d="M 9.542 89.995 c -2.444 0 -4.887 -0.93 -6.748 -2.79 c -3.721 -3.721 -3.721 -9.774 0 -13.495 l 21.204 -21.203 c 0.391 -0.391 1.023 -0.391 1.414 0 s 0.391 1.023 0 1.414 L 4.209 75.124 c -2.941 2.941 -2.941 7.726 0 10.667 c 2.94 2.941 7.726 2.942 10.667 0 l 21.204 -21.203 c 0.391 -0.391 1.023 -0.391 1.414 0 s 0.391 1.023 0 1.414 L 16.29 87.205 C 14.429 89.065 11.986 89.995 9.542 89.995 z" style="stroke: none; stroke-width: 1; stroke-dasharray: none; stroke-linecap: butt; stroke-linejoin: miter; stroke-miterlimit: 10; fill: rgb(0,0,0); fill-rule: nonzero; opacity: 1;" transform=" matrix(1 0 0 1 0 0) " stroke-linecap="round" />
	<path d="M 77.044 42.465 c -0.135 0 -0.272 -0.028 -0.404 -0.086 c -0.505 -0.224 -0.732 -0.815 -0.509 -1.32 c 2.879 -6.486 2.245 -13.888 -1.695 -19.801 c -0.307 -0.46 -0.182 -1.081 0.277 -1.387 c 0.46 -0.308 1.08 -0.182 1.387 0.277 c 4.322 6.486 5.018 14.606 1.859 21.722 C 77.793 42.244 77.428 42.465 77.044 42.465 z" style="stroke: none; stroke-width: 1; stroke-dasharray: none; stroke-linecap: butt; stroke-linejoin: miter; stroke-miterlimit: 10; fill: rgb(0,0,0); fill-rule: nonzero; opacity: 1;" transform=" matrix(1 0 0 1 0 0) " stroke-linecap="round" />
	<path d="M 37.554 42.466 c -0.383 0 -0.749 -0.222 -0.915 -0.595 c -2.585 -5.83 -2.585 -12.514 0 -18.34 c 4.592 -10.346 16.23 -15.725 27.064 -12.509 c 0.529 0.157 0.832 0.713 0.675 1.243 c -0.156 0.529 -0.712 0.833 -1.243 0.674 C 53.26 10.01 42.655 14.91 38.468 24.342 c -2.357 5.31 -2.357 11.403 0 16.718 c 0.224 0.505 -0.004 1.096 -0.509 1.319 C 37.827 42.438 37.689 42.466 37.554 42.466 z" style="stroke: none; stroke-width: 1; stroke-dasharray: none; stroke-linecap: butt; stroke-linejoin: miter; stroke-miterlimit: 10; fill: rgb(0,0,0); fill-rule: nonzero; opacity: 1;" transform=" matrix(1 0 0 1 0 0) " stroke-linecap="round" />
</g>
</g>
</svg>